<svg width="64" height="80.00000000000001" xmlns="http://www.w3.org/2000/svg">
 <title>Artboard 9</title>

 <g>
  <title>Layer 1</title>
  <g id="svg_1" data-name="Layer 10">
   <path id="svg_2" d="m36,31.31353l14,-9.49l8,0l0,-6l-3,0l0,-2a2,2 0 0 0 -2,-2l-4,0a2,2 0 0 0 -2,2l0,2l-11,0l0,-2a2,2 0 0 0 -2,-2l-4,0a2,2 0 0 0 -2,2l0,2l-11,0l0,-2a2,2 0 0 0 -2,-2l-4,0a2,2 0 0 0 -2,2l0,2l-3,0l0,6l8.05,0l14,9.49l0,4.51l-1,0l0,-2a1.84,1.84 0 0 0 -1.14,-1.6a4.68,4.68 0 0 0 -3.22,-0.21a2,2 0 0 0 -1.69,1.88l0,2.25l-4,0.18l0,4.5l3,0l0,24a2,2 0 0 0 2,2l6,0l0,3l8,0l0,-3l6,0a2,2 0 0 0 2,-2l0,-24l3,0l0,-4.5l-4,-0.18l0,-2.32c0,-1.18 -1.22,-2 -2.91,-2l-0.18,0c-1.69,0 -2.91,0.82 -2.91,2l0,2.1l-1,-0.1l0,-4.51zm0,-2.42l0,-7.07l10.4,0l-10.4,7.07zm13,-15.07l4,0l0,2l-4,0l0,-2zm-19,0l4,0l0,2l-4,0l0,-2zm-19,0l4,0l0,2l-4,0l0,-2zm-3,6l0,-2l48,0l0,2l-48,0zm9.6,2l10.4,0l0,7.07l-10.4,-7.07zm12.4,0l4,0l0,13.91l-2,-0.09l-2,0.09l0,-13.91zm-7,12.18l0.19,-0.06a2.68,2.68 0 0 1 1.77,0.06l0,0l0,1.93l-2,0.09l0.04,-2.02zm11,33.82l-4,0l0,-1l4,0l0,1zm-12,-3l0,-24l20,0l0,24l-20,0zm23,-26l-26,0l0,-0.59l13,-0.59l13,0.59l0,0.59zm-6,-4.82a2.06,2.06 0 0 1 0.91,-0.18l0.18,0a2.06,2.06 0 0 1 0.91,0.18l0,2.05l-2,-0.09l0,-1.96zm-15,8.82l2,0l0,19l-2,0l0,-19zm9,0l2,0l0,19l-2,0l0,-19zm-5,0l2,0l0,19l-2,0l0,-19zm10,0l2,0l0,19l-2,0l0,-19z"/>
  </g>
  <text id="svg_4" font-family="'Helvetica Neue', Helvetica, Arial-Unicode, Arial, Sans-serif" font-weight="bold" font-size="5px" fill="#000000" y="84" x="0">from the Noun Project</text>
 </g>
</svg>